<?xml version="1.0" encoding="UTF-8" standalone="no"?>
<!-- Created with Inkscape (http://www.inkscape.org/) -->

<svg
   xmlns:dc="http://purl.org/dc/elements/1.1/"
   xmlns:cc="http://creativecommons.org/ns#"
   xmlns:rdf="http://www.w3.org/1999/02/22-rdf-syntax-ns#"
   xmlns:svg="http://www.w3.org/2000/svg"
   xmlns="http://www.w3.org/2000/svg"
   xmlns:sodipodi="http://sodipodi.sourceforge.net/DTD/sodipodi-0.dtd"
   xmlns:inkscape="http://www.inkscape.org/namespaces/inkscape"
   width="24"
   height="24"
   viewBox="0 0 24.000001 24"
   id="svg2"
   version="1.1"
   inkscape:version="0.91 r13725"
   sodipodi:docname="map_icon_rectangle_base_small.svg">
  <defs
     id="defs4">
    <linearGradient
       id="linearGradient5048">
      <stop
         id="stop5050"
         offset="0"
         style="stop-color:black;stop-opacity:0;" />
      <stop
         style="stop-color:black;stop-opacity:1;"
         offset="0.5"
         id="stop5056" />
      <stop
         id="stop5052"
         offset="1"
         style="stop-color:black;stop-opacity:0;" />
    </linearGradient>
    <linearGradient
       id="linearGradient6719">
      <stop
         id="stop6721"
         offset="0"
         style="stop-color:#73d216;stop-opacity:1;" />
      <stop
         id="stop6723"
         offset="1.0000000"
         style="stop-color:#d5f7b3;stop-opacity:1.0000000;" />
    </linearGradient>
    <linearGradient
       id="linearGradient6711">
      <stop
         id="stop6713"
         offset="0.0000000"
         style="stop-color:#5b8ccb;stop-opacity:1.0000000;" />
      <stop
         id="stop6715"
         offset="1.0000000"
         style="stop-color:#3465a4;stop-opacity:1.0000000;" />
    </linearGradient>
    <linearGradient
       id="linearGradient6699">
      <stop
         id="stop6701"
         offset="0.0000000"
         style="stop-color:#ff7171;stop-opacity:1.0000000;" />
      <stop
         id="stop6703"
         offset="1.0000000"
         style="stop-color:#cc0000;stop-opacity:1.0000000;" />
    </linearGradient>
    <linearGradient
       id="linearGradient269">
      <stop
         style="stop-color:#a3a3a3;stop-opacity:1.0000000;"
         offset="0.0000000"
         id="stop270" />
      <stop
         style="stop-color:#4c4c4c;stop-opacity:1.0000000;"
         offset="1.0000000"
         id="stop271" />
    </linearGradient>
    <linearGradient
       id="linearGradient259">
      <stop
         style="stop-color:#fafafa;stop-opacity:1.0000000;"
         offset="0.0000000"
         id="stop260" />
      <stop
         style="stop-color:#bbbbbb;stop-opacity:1.0000000;"
         offset="1.0000000"
         id="stop261" />
    </linearGradient>
    <linearGradient
       id="linearGradient15662">
      <stop
         style="stop-color:#ffffff;stop-opacity:1.0000000;"
         offset="0.0000000"
         id="stop15664" />
      <stop
         style="stop-color:#f8f8f8;stop-opacity:1.0000000;"
         offset="1.0000000"
         id="stop15666" />
    </linearGradient>
    <inkscape:path-effect
       effect="spiro"
       id="path-effect14684"
       is_visible="true" />
    <inkscape:path-effect
       effect="spiro"
       id="path-effect14688"
       is_visible="true" />
    <inkscape:path-effect
       effect="spiro"
       id="path-effect14692"
       is_visible="true" />
    <inkscape:path-effect
       effect="spiro"
       id="path-effect14696"
       is_visible="true" />
    <inkscape:path-effect
       effect="spiro"
       id="path-effect14700"
       is_visible="true" />
    <inkscape:path-effect
       effect="spiro"
       id="path-effect14704"
       is_visible="true" />
  </defs>
  <sodipodi:namedview
     id="base"
     pagecolor="#ffffff"
     bordercolor="#666666"
     borderopacity="1.0"
     inkscape:pageopacity="0.0"
     inkscape:pageshadow="2"
     inkscape:zoom="11.571309"
     inkscape:cx="18.380282"
     inkscape:cy="18.680592"
     inkscape:document-units="px"
     inkscape:current-layer="layer1"
     showgrid="true"
     units="px"
     inkscape:window-width="1920"
     inkscape:window-height="1005"
     inkscape:window-x="0"
     inkscape:window-y="46"
     inkscape:window-maximized="1"
     inkscape:snap-bbox="true"
     inkscape:object-paths="true"
     inkscape:snap-object-midpoints="true"
     inkscape:snap-grids="true"
     inkscape:snap-smooth-nodes="true"
     inkscape:snap-others="true"
     inkscape:bbox-nodes="true"
     inkscape:bbox-paths="true"
     inkscape:snap-bbox-edge-midpoints="true"
     inkscape:snap-bbox-midpoints="true"
     inkscape:snap-global="false"
     inkscape:snap-intersection-paths="true"
     inkscape:object-nodes="true"
     inkscape:snap-midpoints="true"
     inkscape:snap-center="true"
     inkscape:snap-text-baseline="true">
    <inkscape:grid
       type="xygrid"
       id="grid3340" />
  </sodipodi:namedview>
  <metadata
     id="metadata7">
    <rdf:RDF>
      <cc:Work
         rdf:about="">
        <dc:format>image/svg+xml</dc:format>
        <dc:type
           rdf:resource="http://purl.org/dc/dcmitype/StillImage" />
        <dc:title />
      </cc:Work>
    </rdf:RDF>
  </metadata>
  <g
     inkscape:label="Layer 1"
     inkscape:groupmode="layer"
     id="layer1"
     transform="translate(0,-1028.3621)">
    <path
       inkscape:connector-curvature="0"
       style="color:#000000;display:inline;overflow:visible;visibility:visible;fill:#ffffff;fill-opacity:1;fill-rule:evenodd;stroke:none;stroke-width:11.46512127;marker:none;enable-background:accumulate"
       d="m 2.6170008,1032.0778 0,16.5686 18.7659992,0 0,-16.5686 z m 2.1973587,2.2661 14.3712815,0 0,12.0365 -14.3712815,0 z"
       id="path4575" />
    <path
       style="color:#000000;display:inline;overflow:visible;visibility:visible;fill:#ffffff;fill-opacity:1;fill-rule:evenodd;stroke:none;stroke-width:11.46512127;marker:none;enable-background:accumulate"
       d="m 5.4091457,1035.9223 c -0.043199,0.013 -0.083123,0.036 -0.1149489,0.068 -0.031826,0.032 -0.055487,0.072 -0.068124,0.115 -0.02222,0.076 -0.01,0.158 0.0131,0.2337 0.023096,0.076 0.056753,0.1479 0.078437,0.224 0.039168,0.1375 0.038037,0.2835 0.021277,0.4255 -0.016761,0.142 -0.048735,0.2817 -0.070505,0.423 -0.02177,0.1413 -0.033246,0.286 -0.00886,0.4268 0.024388,0.1409 0.087479,0.2786 0.1953906,0.3724 0.082272,0.072 0.1894485,0.1149 0.2984278,0.1163 0.1089793,0 0.2187339,-0.04 0.2965609,-0.1163 0.039555,-0.039 0.070736,-0.086 0.091536,-0.1373 0.02214,-0.055 0.032452,-0.1133 0.049582,-0.1697 0.01713,-0.056 0.042615,-0.1127 0.087724,-0.1507 0.031013,-0.026 0.069595,-0.042 0.1090413,-0.051 0.039447,-0.01 0.08005,-0.013 0.1204527,-0.016 0.040403,-0 0.081005,-0.01 0.1203159,-0.017 0.039311,-0.01 0.077609,-0.026 0.1078737,-0.053 0.02441,-0.022 0.042734,-0.049 0.06307,-0.075 0.020336,-0.026 0.043909,-0.05 0.074235,-0.062 0.021615,-0.01 0.045485,-0.011 0.068728,-0.01 0.023243,0 0.046081,0.01 0.06887,0.012 0.022789,0 0.045762,0.01 0.069053,0.01 0.023291,8e-4 0.047111,-0 0.06796,-0.013 0.017295,-0.01 0.032005,-0.022 0.04419,-0.037 0.012185,-0.015 0.021973,-0.032 0.031055,-0.049 0.018162,-0.034 0.034285,-0.071 0.062061,-0.097 0.019964,-0.019 0.045145,-0.033 0.07167,-0.041 0.026525,-0.01 0.054415,-0.012 0.082197,-0.012 0.055564,-0 0.1109404,0.01 0.1665113,0.01 0.1404156,-0 0.275659,-0.071 0.3713483,-0.1737 0.095689,-0.1028 0.1536064,-0.2372 0.1778723,-0.3755 0.00798,-0.045 0.012403,-0.093 0,-0.1373 -0.014375,-0.051 -0.050722,-0.095 -0.094656,-0.1256 -0.043933,-0.031 -0.095167,-0.049 -0.1470313,-0.062 -0.103728,-0.026 -0.2149216,-0.033 -0.3075336,-0.087 -0.075236,-0.043 -0.1307536,-0.1137 -0.1830733,-0.1831 -0.1656411,-0.2197 -0.3185433,-0.4491 -0.4576836,-0.6865 -0.2829461,-0.1353 -0.6202816,-0.1523 -0.9153672,-0.046 -0.2705697,0.097 -0.5030814,0.2967 -0.6407574,0.5492 l 3e-7,4e-4 z"
       id="path4577"
       inkscape:path-effect="#path-effect14684"
       inkscape:original-d="m 5.4091457,1035.9223 c -0.061024,0.061 -0.1291611,0.1157 -0.1830734,0.1831 -0.093492,0.1169 0.049066,0.3728 0.091537,0.4577 0.1358086,0.2716 -0.013221,1.4971 0.1373052,1.6477 0.043073,0.043 0.533199,0.021 0.5949887,0 0.2154077,-0.072 0.00656,-0.052 0.091536,-0.1373 0.076281,-0.076 0.061025,-0.2441 0.1373052,-0.3204 0.1284855,-0.1285 0.3093455,-0.063 0.4576836,-0.1373 0.050046,-0.025 0.1194432,-0.1284 0.1373051,-0.1373 0.049496,-0.025 0.2350067,0.04 0.2746102,0 0.076707,-0.077 0.09262,-0.094 0.1373052,-0.1831 0.019969,-0.04 0.2824217,0.03 0.3203784,-0.046 0.092278,-0.1845 0.3723905,-0.3724 0.5492206,-0.5492 0.032363,-0.032 0,-0.091 0,-0.1373 0,-0.4031 -0.3892217,-0.1146 -0.5492206,-0.2746 -0.034727,-0.035 -0.1696521,-0.1562 -0.1830733,-0.1831 -0.033993,-0.068 -0.399842,-0.6287 -0.4576836,-0.6865 -0.00587,-0.01 -0.845542,-0.081 -0.9153672,-0.046 -0.059694,0.03 -0.5027973,0.4389 -0.6407574,0.5492 z"
       inkscape:connector-curvature="0" />
    <path
       style="color:#000000;display:inline;overflow:visible;visibility:visible;fill:#ffffff;fill-opacity:1;fill-rule:evenodd;stroke:none;stroke-width:11.46512127;marker:none;enable-background:accumulate"
       d="m 5.5464508,1038.6684 c 0.015166,0.024 0.020891,0.054 0.015709,0.082 -0.00518,0.028 -0.021219,0.054 -0.044008,0.071 -0.022789,0.017 -0.052104,0.025 -0.080445,0.022 -0.028341,-0 -0.055427,-0.017 -0.074328,-0.038 -0.020984,-0.024 -0.031515,-0.056 -0.028329,-0.088 0.00319,-0.032 0.020039,-0.061 0.04534,-0.08 0.025301,-0.019 0.058668,-0.027 0.089766,-0.021 0.031098,0.01 0.059458,0.025 0.076296,0.052 0.019541,0.031 0.023068,0.071 0.014765,0.1062 -0.0083,0.036 -0.027547,0.068 -0.050592,0.097 -0.04609,0.057 -0.108058,0.1011 -0.1472467,0.1632 -0.025478,0.04 -0.04028,0.087 -0.043068,0.135 -0.00279,0.048 0.00639,0.096 0.02601,0.1393 0.039239,0.087 0.1208359,0.1529 0.2133044,0.1765 0.092469,0.024 0.1939987,0.01 0.2750752,-0.044 0.081077,-0.05 0.1413483,-0.132 0.1694359,-0.2232 0.041574,-0.135 0.010455,-0.2901 -0.079982,-0.3987 -0.090437,-0.1085 -0.2373922,-0.1671 -0.3777019,-0.1506 z"
       id="path4579"
       inkscape:path-effect="#path-effect14688"
       inkscape:original-d="m 5.5464508,1038.6684 c -0.061024,0.046 -0.1373051,0.1984 -0.1830733,0.1373 -0.045768,-0.061 0.1830733,-0.2135 0.1830733,-0.1373 0,0.067 -0.2841185,0.3662 -0.1830733,0.3662 0.052007,0 0.3801218,0.4437 0.6407569,0.1831 0.311099,-0.3111 0.1648582,-0.9228 -0.4576836,-0.5493 z"
       inkscape:connector-curvature="0" />
    <path
       style="color:#000000;display:inline;overflow:visible;visibility:visible;fill:#ffffff;fill-opacity:1;fill-rule:evenodd;stroke:none;stroke-width:11.46512127;marker:none;enable-background:accumulate"
       d="m 5.4091457,1039.8126 c 0.066282,0.1586 0.097746,0.3317 0.091537,0.5035 -0.00669,0.1852 -0.056227,0.3658 -0.090763,0.5478 -0.034536,0.1821 -0.053733,0.373 -7.744e-4,0.5506 0.039096,0.1311 0.1152287,0.2474 0.1830738,0.3662 0.2241024,0.3925 0.3650908,0.832 0.4119149,1.2815 0.011098,0.1065 0.016931,0.2146 0,0.3204 -0.02291,0.1431 -0.086507,0.2763 -0.1554853,0.4038 -0.068978,0.1275 -0.144464,0.2524 -0.1944089,0.3885 -0.049945,0.136 -0.073104,0.2868 -0.033906,0.4263 0.019599,0.07 0.054844,0.1356 0.1051493,0.1878 0.050305,0.052 0.1159448,0.09 0.187115,0.1039 0.060144,0.012 0.1221036,0.01 0.1830733,0 0.1436466,-0.014 0.2877946,-0.027 0.4283835,-0.06 0.1405889,-0.033 0.2783991,-0.085 0.3954473,-0.1689 0.1354276,-0.098 0.2381796,-0.2351 0.3161784,-0.3827 0.077999,-0.1476 0.1328418,-0.3061 0.1873657,-0.4639 0.054524,-0.1578 0.1093476,-0.3164 0.1873121,-0.464 0.077964,-0.1476 0.1806654,-0.2851 0.3160474,-0.3828 0.1109277,-0.08 0.2397397,-0.1308 0.3661472,-0.1831 0.3555687,-0.1471 0.718243,-0.3241 0.9482867,-0.6326 0.1150218,-0.1542 0.1923414,-0.3397 0.2011557,-0.5319 0.00881,-0.1922 -0.054852,-0.3903 -0.188307,-0.5289 -0.1059942,-0.1101 -0.2480849,-0.1776 -0.3661467,-0.2746 -0.180342,-0.1482 -0.29679,-0.3578 -0.439362,-0.5426 -0.071286,-0.092 -0.1505068,-0.18 -0.2451708,-0.2482 -0.094664,-0.068 -0.2059322,-0.1167 -0.3223713,-0.1246 -0.060905,-0 -0.1220903,0 -0.1830733,0 -0.1381477,-0.01 -0.2690231,-0.061 -0.3938667,-0.1209 -0.1248436,-0.06 -0.2489732,-0.1247 -0.3841954,-0.1537 -0.142217,-0.031 -0.2897004,-0.019 -0.434529,-0.01 -0.1448286,0.013 -0.2914148,0.029 -0.43507,0.01 -0.030627,-0 -0.06106,-0.011 -0.091998,-0.014 -0.030939,-0 -0.062865,6e-4 -0.091075,0.014 -0.022527,0.01 -0.041856,0.027 -0.057947,0.045 -0.016091,0.019 -0.02912,0.04 -0.041298,0.062 -0.024356,0.043 -0.046489,0.089 -0.083829,0.1217 -0.039984,0.035 -0.095871,0.051 -0.1481697,0.042 -0.052299,-0.01 -0.09999,-0.042 -0.1264405,-0.088 l -4e-7,2e-4 z"
       id="path4581"
       inkscape:path-effect="#path-effect14692"
       inkscape:original-d="m 5.4091457,1039.8126 c 0.024774,0.1785 0.091537,0.3266 0.091537,0.5035 0,0.073 -0.1062849,1.0837 -0.091537,1.0984 0.090436,0.091 0.072982,0.2561 0.1830738,0.3662 0.3732503,0.3732 0.4119149,0.5209 0.4119149,1.2815 0,0.051 0.032363,0.288 0,0.3204 -9.36e-5,1e-4 -0.1636367,1.4382 -0.091536,1.5103 0.031054,0.031 0.1411867,-0.021 0.1830733,0 0.285028,0.1425 0.6442447,-0.049 0.8238308,-0.2288 0.5079163,-0.5079 0.7379822,-1.1556 1.0069036,-1.6934 0.043204,-0.086 0.292526,-0.1095 0.3661472,-0.1831 0.2584007,-0.2584 1.2905679,-1.0346 0.9611354,-1.6934 -0.094472,-0.189 -0.23565,-0.1442 -0.3661467,-0.2746 -0.3336724,-0.3337 -0.6017877,-0.7129 -1.0069041,-0.9154 -0.038106,-0.019 -0.1540419,0.029 -0.1830733,0 -0.1816058,-0.1816 -0.5605328,-0.1659 -0.7780621,-0.2746 -0.1875711,-0.094 -0.6566703,0 -0.869599,0 -0.02793,0 -0.1652404,-0.018 -0.1830733,0 -0.068653,0.069 -0.1144211,0.1602 -0.1830739,0.2288 -0.065619,0.066 -0.1836127,-0.028 -0.2746102,-0.046 z"
       inkscape:connector-curvature="0" />
    <path
       style="color:#000000;display:inline;overflow:visible;visibility:visible;fill:#ffffff;fill-opacity:1;fill-rule:evenodd;stroke:none;stroke-width:11.46512127;marker:none;enable-background:accumulate"
       d="m 10.397898,1039.9042 c 0.329517,-0.1256 0.708701,-0.115 1.030619,0.029 0.321919,0.144 0.582617,0.4196 0.708578,0.749 0.143787,0.376 0.112604,0.7928 0.08824,1.1946 -0.02436,0.4018 -0.03599,0.8236 0.140597,1.1854 0.03406,0.07 0.0751,0.1367 0.128061,0.1935 0.05296,0.057 0.118391,0.1032 0.192318,0.1269 0.117257,0.038 0.244063,0.016 0.366147,0 0.167089,-0.022 0.33538,-0.033 0.503452,-0.046 0.07806,-0.01 0.158114,-0.013 0.228841,-0.046 0.07012,-0.033 0.126497,-0.091 0.166638,-0.1578 0.04014,-0.066 0.06501,-0.141 0.0832,-0.2165 0.03638,-0.1509 0.04812,-0.3101 0.11631,-0.4495 0.05522,-0.1129 0.143929,-0.2053 0.230688,-0.2962 0.08676,-0.091 0.174487,-0.1846 0.226996,-0.2988 0.06058,-0.1317 0.07058,-0.2832 0.137305,-0.4119 0.04836,-0.093 0.124305,-0.1698 0.207768,-0.2337 0.08346,-0.064 0.174986,-0.1161 0.26415,-0.1717 0.08916,-0.056 0.176937,-0.1153 0.249662,-0.1911 0.07272,-0.076 0.130104,-0.1696 0.148019,-0.2731 0.01879,-0.1086 -0.0066,-0.22 -0.04082,-0.3248 -0.03424,-0.1048 -0.07764,-0.2073 -0.09648,-0.3159 -0.0159,-0.092 -0.01424,-0.1872 -0.04577,-0.2747 -0.03226,-0.09 -0.0978,-0.1645 -0.175105,-0.22 -0.07731,-0.055 -0.166181,-0.093 -0.256476,-0.123 -0.180589,-0.06 -0.3749,-0.095 -0.529554,-0.2062 -0.160085,-0.1149 -0.257253,-0.2969 -0.334729,-0.478 -0.07748,-0.1812 -0.142479,-0.371 -0.26026,-0.5289 -0.167892,-0.2251 -0.432771,-0.3661 -0.708397,-0.42 -0.275626,-0.054 -0.56193,-0.027 -0.83541,0.037 -0.54696,0.1279 -1.057483,0.4003 -1.61421,0.4749 -0.05567,0.01 -0.111738,0.013 -0.166512,0.025 -0.05477,0.012 -0.108737,0.032 -0.153866,0.066 -0.073,0.054 -0.117227,0.1402 -0.137306,0.2288 -0.03056,0.1349 -0.01028,0.2753 0.0076,0.4124 0.01787,0.1372 0.03283,0.2793 -0.0076,0.4115 -0.02918,0.096 -0.08597,0.1809 -0.113056,0.277 -0.01354,0.048 -0.01939,0.099 -0.0098,0.1481 0.0096,0.049 0.0359,0.096 0.07704,0.1241 0.02673,0.018 0.0591,0.028 0.09154,0.028 0.03244,0 0.06481,-0.01 0.09154,-0.028 l 3e-6,5e-4 z"
       id="path4583"
       inkscape:path-effect="#path-effect14696"
       inkscape:original-d="m 10.397898,1039.9042 c 0.278076,0.6882 1.328934,0.3678 1.739197,0.778 0.271793,0.2718 -0.09254,2.0586 0.228842,2.38 0.112836,0.1128 0.212961,0.213 0.320379,0.3204 0.0578,0.058 0.291427,-0.037 0.366147,0 0.191614,0.096 0.371843,0.02 0.503452,-0.046 0.06547,-0.033 0.171342,0.012 0.228841,-0.046 0.196655,-0.1966 0.165918,-0.6236 0.366147,-0.8238 0.160189,-0.1602 0.353506,-0.3866 0.457684,-0.595 0.05837,-0.1167 0.04856,-0.3231 0.137305,-0.4119 0.28559,-0.2856 0.683557,-0.4975 0.869599,-0.8696 0.09607,-0.1921 -0.03837,-0.5913 -0.137305,-0.6407 -0.02961,-0.015 -0.02097,-0.2499 -0.04577,-0.2747 -0.168074,-0.168 -0.837154,-0.4252 -0.961135,-0.5492 -0.268266,-0.2682 -0.32195,-0.7338 -0.594989,-1.0069 -0.152617,-0.1526 -2.886077,-0.09 -3.158017,0.092 -0.100604,0.067 -0.255314,0.026 -0.320378,0.091 -0.0386,0.039 -0.09871,0.1902 -0.137306,0.2288 -0.132087,0.1321 0.0869,0.6501 0,0.8239 -0.01698,0.034 -0.102283,0.5351 -0.04577,0.5492 0.0592,0.015 0.122049,0 0.183074,0 z"
       inkscape:connector-curvature="0" />
    <path
       style="color:#000000;display:inline;overflow:visible;visibility:visible;fill:#ffffff;fill-opacity:1;fill-rule:evenodd;stroke:none;stroke-width:11.46512127;marker:none;enable-background:accumulate"
       d="m 18.544666,1043.7487 c -0.104399,-0.097 -0.246349,-0.1531 -0.389031,-0.1531 -0.142682,0 -0.284632,0.056 -0.389031,0.1531 -0.06758,0.063 -0.118704,0.1411 -0.173043,0.2158 -0.05434,0.075 -0.114181,0.1481 -0.193104,0.1961 -0.06833,0.042 -0.147286,0.062 -0.225559,0.078 -0.07827,0.016 -0.157831,0.03 -0.232124,0.059 -0.0888,0.035 -0.167582,0.093 -0.233603,0.1624 -0.06602,0.069 -0.119698,0.1493 -0.165597,0.2331 -0.0918,0.1677 -0.153153,0.3504 -0.241558,0.5199 -0.0491,0.094 -0.106737,0.1846 -0.141291,0.285 -0.01728,0.05 -0.02862,0.1028 -0.02934,0.1558 -7.21e-4,0.053 0.0094,0.1068 0.03333,0.1542 0.04096,0.081 0.120409,0.1393 0.207234,0.1667 0.08683,0.028 0.180542,0.027 0.270413,0.012 0.179742,-0.029 0.348227,-0.1128 0.529257,-0.1328 0.252135,-0.028 0.498755,0.069 0.746464,0.1239 0.123855,0.027 0.251599,0.044 0.377557,0.029 0.125957,-0.015 0.250759,-0.064 0.340567,-0.1533 0.08405,-0.084 0.132766,-0.1986 0.15159,-0.3158 0.01882,-0.1172 0.0095,-0.2373 -0.01,-0.3543 -0.03899,-0.2342 -0.118692,-0.4667 -0.09583,-0.703 0.01187,-0.1226 0.05133,-0.243 0.04577,-0.3661 -0.0063,-0.1404 -0.07457,-0.2769 -0.183074,-0.3662 l -3e-6,-2e-4 z"
       id="path4585"
       inkscape:path-effect="#path-effect14700"
       inkscape:original-d="m 18.544666,1043.7487 c -0.216299,0.084 -0.571292,-0.1034 -0.778062,0 -0.153205,0.077 -0.215837,0.2616 -0.366147,0.4119 -0.0908,0.091 -0.320185,0.069 -0.457683,0.1373 -0.199106,0.1 -0.640758,0.6124 -0.640758,0.9154 0,0.1897 -0.159208,0.5731 -0.137305,0.595 0.09384,0.094 0.863329,0.046 1.006904,0.046 0.237627,0 1.448335,0.016 1.464588,0 0.185986,-0.186 0.04577,-1.091 0.04577,-1.3731 0,-0.023 0.119007,-0.2929 0.04577,-0.3661 -0.08819,-0.088 -0.102178,-0.1639 -0.183074,-0.3662 z"
       inkscape:connector-curvature="0" />
    <path
       style="color:#000000;display:inline;overflow:visible;visibility:visible;fill:#ffffff;fill-opacity:1;fill-rule:evenodd;stroke:none;stroke-width:11.46512127;marker:none;enable-background:accumulate"
       d="m 11.908253,1036.0139 c -0.151061,-0.1016 -0.348242,-0.1315 -0.522627,-0.079 -0.174385,0.052 -0.322561,0.1858 -0.39274,0.3538 -0.05976,0.1431 -0.06366,0.3037 -0.04577,0.4577 0.0071,0.061 0.01752,0.1221 0.02093,0.1836 0.0034,0.062 -3.86e-4,0.1244 -0.02093,0.1825 -0.02488,0.07 -0.07323,0.1304 -0.128919,0.1801 -0.05569,0.05 -0.11894,0.09 -0.181173,0.1312 -0.06223,0.041 -0.124193,0.084 -0.176214,0.1373 -0.05202,0.053 -0.09402,0.119 -0.108683,0.1922 -0.0111,0.055 -0.006,0.1137 0.01297,0.1668 0.01901,0.053 0.0518,0.1012 0.0934,0.1393 0.08319,0.076 0.199921,0.1114 0.312663,0.105 0.112742,-0.01 0.221202,-0.052 0.312487,-0.1183 0.09129,-0.067 0.166297,-0.1533 0.229622,-0.2468 0.04344,-0.064 0.08192,-0.132 0.131785,-0.1912 0.04987,-0.059 0.11335,-0.1107 0.188593,-0.1291 0.0744,-0.018 0.152291,-0 0.228842,0 0.131086,0 0.260366,-0.027 0.388392,-0.056 0.128025,-0.029 0.259698,-0.054 0.38967,-0.036 0.139715,0.019 0.270976,0.088 0.411916,0.092 0.07838,0 0.156701,-0.015 0.228841,-0.046 0.100354,-0.043 0.189452,-0.1103 0.292638,-0.1457 0.05159,-0.018 0.106898,-0.027 0.160957,-0.02 0.05406,0.01 0.106811,0.032 0.141394,0.074 0.02187,0.027 0.03588,0.059 0.04291,0.093 0.007,0.034 0.0073,0.069 0.0035,0.103 -0.0076,0.068 -0.03087,0.1342 -0.04736,0.2012 -0.01649,0.067 -0.02604,0.1383 -0.0061,0.2044 0.01,0.033 0.02738,0.064 0.05235,0.088 0.02496,0.024 0.05768,0.04 0.09206,0.043 0.02299,0 0.04598,-0 0.06891,-0 0.02293,-0 0.04677,-0 0.06839,0 0.01761,0.01 0.03288,0.019 0.04406,0.034 0.01117,0.015 0.01833,0.033 0.02182,0.051 0.007,0.037 -5.02e-4,0.075 -0.01257,0.1108 -0.01207,0.036 -0.02867,0.07 -0.04074,0.1051 -0.01207,0.036 -0.01956,0.074 -0.01257,0.1107 0.006,0.031 0.02236,0.06 0.04472,0.083 0.02235,0.023 0.05047,0.04 0.0805,0.051 0.06006,0.022 0.126131,0.021 0.189785,0.014 0.06365,-0.01 0.126924,-0.019 0.190948,-0.019 0.06402,-10e-5 0.130575,0.014 0.180578,0.054 0.03264,0.026 0.05645,0.062 0.07304,0.1004 0.0166,0.038 0.02636,0.079 0.03454,0.1202 0.01637,0.082 0.02799,0.1683 0.07549,0.2371 0.02589,0.037 0.06145,0.068 0.101072,0.09 0.03962,0.022 0.08325,0.037 0.12777,0.047 0.102998,0.022 0.210472,0.017 0.314055,-0 0.103584,-0.019 0.204016,-0.053 0.303999,-0.086 0.09998,-0.033 0.200218,-0.067 0.303606,-0.088 0.103387,-0.02 0.21067,-0.027 0.314086,-0.01 0.108987,0.021 0.210341,0.072 0.302262,0.1348 0.09192,0.062 0.175416,0.1361 0.260003,0.2081 0.08459,0.072 0.171034,0.1427 0.267358,0.198 0.09632,0.055 0.203626,0.095 0.314586,0.1 0.09255,0 0.18423,-0.016 0.276222,-0.027 0.09199,-0.011 0.188935,-0.012 0.272998,0.027 0.05359,0.025 0.09902,0.065 0.152068,0.091 0.02653,0.013 0.05519,0.023 0.08469,0.024 0.0295,0 0.05995,-0.01 0.08362,-0.024 0.02291,-0.017 0.03829,-0.043 0.04555,-0.071 0.0073,-0.028 0.0068,-0.057 0.0023,-0.085 -0.0092,-0.056 -0.03453,-0.1089 -0.04781,-0.1645 -0.02012,-0.084 -0.01182,-0.1731 0.0089,-0.2573 0.02068,-0.084 0.05339,-0.1647 0.08268,-0.2462 0.0529,-0.1473 0.09524,-0.3013 0.09154,-0.4577 -0.0033,-0.1394 -0.0429,-0.275 -0.06758,-0.4122 -0.02468,-0.1372 -0.0335,-0.2836 0.02181,-0.4116 0.01347,-0.031 0.03052,-0.061 0.04577,-0.091 0.07689,-0.153 0.107017,-0.3265 0.106366,-0.4977 -6.51e-4,-0.1712 -0.03104,-0.341 -0.06997,-0.5077 -0.07787,-0.3335 -0.191185,-0.6664 -0.173698,-1.0084 0.0031,-0.061 0.01041,-0.1228 0,-0.1831 -0.01042,-0.06 -0.03863,-0.1171 -0.07853,-0.1636 -0.03989,-0.046 -0.09121,-0.083 -0.147387,-0.107 -0.112356,-0.049 -0.24135,-0.049 -0.360394,-0.021 -0.238089,0.057 -0.433437,0.2218 -0.649438,0.3372 -0.255822,0.1367 -0.54832,0.2057 -0.838031,0.1916 -0.28971,-0.014 -0.575692,-0.1121 -0.80963,-0.2836 -0.0788,-0.058 -0.151495,-0.1234 -0.228842,-0.1831 -0.27363,-0.2112 -0.605061,-0.3452 -0.947711,-0.3906 -0.342651,-0.045 -0.695747,-0 -1.020328,0.116 -0.315718,0.1156 -0.601597,0.3005 -0.869599,0.5035 -0.241569,0.183 -0.471073,0.3819 -0.686526,0.595 l -5e-6,-4e-4 z"
       id="path4587"
       inkscape:path-effect="#path-effect14704"
       inkscape:original-d="m 11.908253,1036.0139 c -0.329958,-0.031 -0.750401,-0.055 -0.915367,0.2746 -0.06434,0.1287 0.02121,0.3237 -0.04577,0.4577 -0.04882,0.098 0.04882,0.2685 0,0.3661 -0.04827,0.097 -0.768183,0.4676 -0.594989,0.6408 0.01811,0.018 0.828961,0.1779 0.961136,0.046 0.109028,-0.109 0.214771,-0.2147 0.320378,-0.3203 0.03814,-0.038 0.190702,0.038 0.228842,0 0.173156,-0.1732 0.573696,-0.1938 0.778062,-0.092 0.173027,0.087 0.417775,0.092 0.411916,0.092 -0.05351,0 0.223127,-0.043 0.228841,-0.046 0.127257,-0.064 0.424612,-0.1767 0.594989,-0.091 0.217336,0.1086 -0.0054,0.5896 0.137305,0.7323 0.02288,0.023 0.114421,-0.023 0.137305,0 0.09709,0.097 -0.0614,0.2891 0,0.4119 0.0205,0.041 0.531454,0.1055 0.686526,0.183 0.165448,0.083 0.07892,0.3536 0.183073,0.4577 0.04717,0.047 0.181668,0.09 0.228842,0.1373 0.210225,0.2103 1.028758,-0.39 1.235746,-0.183 0.310438,0.3104 0.732703,0.435 1.144209,0.6407 0.146458,0.073 0.402761,-0.073 0.54922,0 0.0833,0.042 0.201647,0.1509 0.320379,0.091 0.01802,-0.01 0,-0.2984 0,-0.3203 0,-0.1634 0.09154,-0.3407 0.09154,-0.5035 0,-0.1411 0.03328,-0.3412 0.09154,-0.4577 0.06637,-0.1327 0.01582,-0.7622 -0.04577,-0.8238 -0.0341,-0.034 0.04577,-0.044 0.04577,-0.091 0,-0.4287 0.07274,-1.8038 -0.137305,-2.0138 -0.03051,-0.031 0.03051,-0.1526 0,-0.1831 -0.200247,-0.2003 -1.013373,0.2681 -1.235746,0.046 -0.339733,-0.3398 -1.210621,0.1269 -1.647661,-0.092 -0.08526,-0.043 -0.187081,-0.1413 -0.228842,-0.1831 -0.001,-10e-4 -1.712312,-0.5303 -1.968039,-0.2746 -0.04989,0.05 -0.756005,0.4467 -0.869599,0.5035 -0.501803,0.2509 -0.504435,-0.3155 -0.686526,0.595 z"
       inkscape:connector-curvature="0" />
  </g>
</svg>
