<?xml version="1.0" encoding="UTF-8" standalone="no"?>
<!-- Created with Inkscape (http://www.inkscape.org/) -->

<svg
   xmlns:dc="http://purl.org/dc/elements/1.1/"
   xmlns:cc="http://creativecommons.org/ns#"
   xmlns:rdf="http://www.w3.org/1999/02/22-rdf-syntax-ns#"
   xmlns:svg="http://www.w3.org/2000/svg"
   xmlns="http://www.w3.org/2000/svg"
   xmlns:sodipodi="http://sodipodi.sourceforge.net/DTD/sodipodi-0.dtd"
   xmlns:inkscape="http://www.inkscape.org/namespaces/inkscape"
   width="24"
   height="24"
   viewBox="0 0 24.000001 24"
   id="svg2"
   version="1.1"
   inkscape:version="0.91 r13725"
   sodipodi:docname="map_icon_circle_base_small.svg">
  <defs
     id="defs4" />
  <sodipodi:namedview
     id="base"
     pagecolor="#ffffff"
     bordercolor="#666666"
     borderopacity="1.0"
     inkscape:pageopacity="0.0"
     inkscape:pageshadow="2"
     inkscape:zoom="23.452374"
     inkscape:cx="11.586918"
     inkscape:cy="12.443018"
     inkscape:document-units="px"
     inkscape:current-layer="layer1"
     showgrid="true"
     units="px"
     inkscape:window-width="1920"
     inkscape:window-height="1005"
     inkscape:window-x="0"
     inkscape:window-y="46"
     inkscape:window-maximized="1"
     inkscape:snap-bbox="false"
     inkscape:object-paths="false"
     inkscape:snap-object-midpoints="false"
     inkscape:snap-grids="false">
    <inkscape:grid
       type="xygrid"
       id="grid3340" />
  </sodipodi:namedview>
  <metadata
     id="metadata7">
    <rdf:RDF>
      <cc:Work
         rdf:about="">
        <dc:format>image/svg+xml</dc:format>
        <dc:type
           rdf:resource="http://purl.org/dc/dcmitype/StillImage" />
        <dc:title></dc:title>
      </cc:Work>
    </rdf:RDF>
  </metadata>
  <g
     inkscape:label="Layer 1"
     inkscape:groupmode="layer"
     id="layer1"
     transform="translate(0,-1028.3621)">
    <path
       style="fill:none;fill-rule:evenodd;stroke:#000000;stroke-width:1px;stroke-linecap:butt;stroke-linejoin:miter;stroke-opacity:1"
       d="m 12.000001,1028.8621 c -6.3480005,0 -11.50000099,5.152 -11.50000099,11.5 0,6.348 5.15200049,11.5 11.50000099,11.5 6.348001,0 11.500001,-5.152 11.500001,-11.5 0,-6.348 -5.152,-11.5 -11.500001,-11.5 z"
       id="path3338"
       inkscape:connector-curvature="0"
       sodipodi:nodetypes="sssss" />
    <path
       style="fill:none;fill-rule:evenodd;stroke:#000000;stroke-width:1px;stroke-linecap:butt;stroke-linejoin:miter;stroke-opacity:1"
       d="m 6.6081367,1048.0178 8.6177573,-4.4636 3.40291,-9.6342"
       id="path4143"
       inkscape:connector-curvature="0"
       sodipodi:nodetypes="ccc" />
    <path
       style="fill:none;fill-rule:evenodd;stroke:#000000;stroke-width:1px;stroke-linecap:butt;stroke-linejoin:miter;stroke-opacity:1"
       d="m 14.068548,1042.4632 2.093725,2.0938"
       id="path4145"
       inkscape:connector-curvature="0" />
    <path
       inkscape:connector-curvature="0"
       id="path4147"
       d="m 16.162273,1042.4632 -2.093725,2.0938"
       style="fill:none;fill-rule:evenodd;stroke:#000000;stroke-width:1px;stroke-linecap:butt;stroke-linejoin:miter;stroke-opacity:1" />
    <g
       style="font-style:normal;font-weight:normal;font-size:13.55821991px;line-height:125%;font-family:sans-serif;letter-spacing:0px;word-spacing:0px;fill:#000000;fill-opacity:1;stroke:none;stroke-width:1px;stroke-linecap:butt;stroke-linejoin:miter;stroke-opacity:1"
       id="text4149">
      <path
         d="m 8.6672789,1040.9211 1.3439061,0 0,1.6816 -1.3439061,0 0,-1.6816 z m 1.3041843,-0.9731 -1.2644629,0 0,-1.0196 q 0,-0.6686 0.1853663,-1.0989 0.1853662,-0.4303 0.7811865,-0.9997 l 0.5958199,-0.5892 q 0.377353,-0.3508 0.542859,-0.662 0.172126,-0.3111 0.172126,-0.6355 0,-0.5892 -0.436935,-0.9534 -0.430315,-0.3641 -1.1452992,-0.3641 -0.5229977,0 -1.1188179,0.2317 -0.5892,0.2318 -1.2313618,0.6753 l 0,-1.2446 q 0.6223011,-0.3773 1.2578427,-0.5627 0.6421618,-0.1854 1.3240449,-0.1854 1.2181213,0 1.9529663,0.6422 0.741465,0.6421 0.741465,1.6948 0,0.5031 -0.238328,0.9599 -0.238328,0.4502 -0.834148,1.0195 l -0.58258,0.5693 q -0.311151,0.3112 -0.443555,0.4899 -0.125784,0.1722 -0.178746,0.3377 -0.03972,0.139 -0.059582,0.3376 -0.019861,0.1986 -0.019861,0.5429 l 0,0.8143 z"
         style=""
         id="path4154" />
    </g>
  </g>
</svg>
